<svg xmlns="http://www.w3.org/2000/svg" width="1024" height="500" viewBox="0 0 1024 500">
  <defs>
    <linearGradient id="bg2" x1="0%" y1="0%" x2="100%" y2="100%">
      <stop offset="0%" style="stop-color:#0f1923"/>
      <stop offset="100%" style="stop-color:#1a2332"/>
    </linearGradient>
    <radialGradient id="redBtn" cx="50%" cy="50%" r="50%">
      <stop offset="0%" style="stop-color:#ef4444"/>
      <stop offset="70%" style="stop-color:#dc2626"/>
      <stop offset="100%" style="stop-color:#991b1b"/>
    </radialGradient>
  </defs>
  <rect width="1024" height="500" fill="url(#bg2)"/>
  <!-- Header -->
  <rect x="0" y="0" width="1024" height="45" fill="#111827" stroke="#1e293b" stroke-width="1"/>
  <circle cx="25" cy="22" r="10" fill="#ef4444" opacity="0.8"/>
  <text x="45" y="27" font-family="sans-serif" font-size="14" font-weight="bold" fill="#e0e6ed">CSW Red Button</text>
  <text x="140" y="27" font-family="sans-serif" font-size="10" fill="#6b7280">Pre-uninstall evidence collection — agent metadata · workspace policies · denied flows</text>
  <text x="900" y="27" font-family="monospace" font-size="10" fill="#6b7280">api: localhost:5055</text>
  <!-- Left panel - Target -->
  <rect x="30" y="65" width="280" height="400" rx="8" fill="#111827" stroke="#1e293b" stroke-width="1"/>
  <text x="55" y="95" font-family="sans-serif" font-size="14" font-weight="bold" fill="#e0e6ed">Target</text>
  <text x="55" y="120" font-family="sans-serif" font-size="11" fill="#6b7280">CSW Scope</text>
  <rect x="55" y="130" width="230" height="32" rx="4" fill="#0d1520" stroke="#1e293b" stroke-width="1"/>
  <text x="70" y="150" font-family="sans-serif" font-size="10" fill="#4b5563">Type or pick a scope name...</text>
  <text x="55" y="180" font-family="sans-serif" font-size="9" fill="#6b7280">1801 scopes available</text>
  <text x="55" y="205" font-family="sans-serif" font-size="11" fill="#6b7280">Time window for denied flows</text>
  <rect x="55" y="215" width="230" height="32" rx="4" fill="#0d1520" stroke="#1e293b" stroke-width="1"/>
  <text x="70" y="236" font-family="sans-serif" font-size="10" fill="#e0e6ed">Last 24 hours</text>
  <!-- Red button -->
  <circle cx="130" cy="340" r="55" fill="url(#redBtn)"/>
  <circle cx="130" cy="340" r="45" fill="url(#redBtn)" opacity="0.8"/>
  <text x="95" y="330" font-family="sans-serif" font-size="11" font-weight="bold" fill="white">PRESS</text>
  <text x="95" y="345" font-family="sans-serif" font-size="11" font-weight="bold" fill="white">WHEN</text>
  <text x="92" y="360" font-family="sans-serif" font-size="11" font-weight="bold" fill="white">READY</text>
  <!-- Buttons -->
  <rect x="55" y="265" width="105" height="32" rx="4" fill="transparent" stroke="#00d4ff" stroke-width="1"/>
  <text x="68" y="286" font-family="monospace" font-size="10" fill="#00d4ff">Preview hosts</text>
  <rect x="175" y="265" width="105" height="32" rx="4" fill="#00ff88" opacity="0.2"/>
  <text x="210" y="286" font-family="monospace" font-size="10" fill="#00ff88">Arm</text>
  <!-- Right panel - Activity log -->
  <rect x="340" y="65" width="650" height="130" rx="8" fill="#111827" stroke="#1e293b" stroke-width="1"/>
  <text x="365" y="92" font-family="sans-serif" font-size="13" font-weight="bold" fill="#e0e6ed">Activity log</text>
  <rect x="920" y="75" width="45" height="22" rx="4" fill="#1e293b"/>
  <text x="930" y="91" font-family="monospace" font-size="9" fill="#6b7280">idle</text>
  <text x="365" y="120" font-family="monospace" font-size="10" fill="#6b7280">—·—·—·— Waiting for action...</text>
  <!-- Evidence Bundles -->
  <rect x="340" y="210" width="650" height="255" rx="8" fill="#111827" stroke="#1e293b" stroke-width="1"/>
  <text x="365" y="240" font-family="sans-serif" font-size="13" font-weight="bold" fill="#e0e6ed">Evidence Bundles</text>
  <text x="920" y="240" font-family="monospace" font-size="9" fill="#00d4ff">Refresh</text>
  <!-- Bundle items -->
  <rect x="365" y="255" width="580" height="40" rx="4" fill="#0d1520" stroke="#1e293b" stroke-width="0.5"/>
  <text x="380" y="275" font-family="monospace" font-size="8" fill="#e0e6ed">BANCOPPEL_CLOUD_DESARROLLO_ATX_10.27.22.191.zip</text>
  <text x="380" y="288" font-family="monospace" font-size="7" fill="#6b7280">88.4 KB · 5/10/2026, 9:26:05 PM</text>
  <rect x="880" y="262" width="60" height="24" rx="4" fill="#ef4444" opacity="0.2"/>
  <text x="888" y="278" font-family="monospace" font-size="8" fill="#ef4444">Download</text>
  <rect x="365" y="300" width="580" height="40" rx="4" fill="#0d1520" stroke="#1e293b" stroke-width="0.5"/>
  <text x="380" y="320" font-family="monospace" font-size="8" fill="#e0e6ed">BANCOPPEL_CLOUD_DESARROLLO_ATX_10.27.22.191_v2.zip</text>
  <text x="380" y="333" font-family="monospace" font-size="7" fill="#6b7280">419.3 KB · 5/10/2026, 9:20:54 PM</text>
  <rect x="880" y="307" width="60" height="24" rx="4" fill="#ef4444" opacity="0.2"/>
  <text x="888" y="323" font-family="monospace" font-size="8" fill="#ef4444">Download</text>
  <rect x="365" y="345" width="580" height="40" rx="4" fill="#0d1520" stroke="#1e293b" stroke-width="0.5"/>
  <text x="380" y="365" font-family="monospace" font-size="8" fill="#e0e6ed">BANCOPPEL_CLOUD_DESARROLLO_ATX_10.27.22.162.zip</text>
  <text x="380" y="378" font-family="monospace" font-size="7" fill="#6b7280">72.4 KB · 5/10/2026, 9:05:38 PM</text>
  <rect x="880" y="352" width="60" height="24" rx="4" fill="#ef4444" opacity="0.2"/>
  <text x="888" y="368" font-family="monospace" font-size="8" fill="#ef4444">Download</text>
</svg>
